{"title":"12 Monkeys (1995) 720p - JeLL","uid":5518274,"size":5415698652,"categoryP":"video","categoryS":"hd___movies","magnet":"?xt=urn:btih:046e678200fe50d59990e5269e5ffe5e1b9072d2&amp;dn=12+Monkeys+%281995%29+720p+-+JeLL&amp;tr=udp%3A%2F%2Ftracker.openbittorrent.com%3A80&amp;tr=udp%3A%2F%2Fopen.demonii.com%3A1337&amp;tr=udp%3A%2F%2Ftracker.coppersurfer.tk%3A6969&amp;tr=udp%3A%2F%2Fexodus.desync.com%3A6969","seeders":0,"leechers":1,"uploader":"angel181155","files":2,"time":1272353351,"description":"General\nComplete name                    : I:12 Monkeys (1995) 720p - JeLL12 Monkeys (1995).mkv\nFormat                           : Matroska\nFile size                        : 5.04 GiB\nDuration                         : 2h 9mn\nOverall bit rate                 : 5 573 Kbps\nEncoded date                     : UTC 2010-04-26 11:43:00\nWriting application              : mkvmerge v3.3.0 ('Language') built on Mar 24 2010 14:59:24\nWriting library                  : libebml v0.8.0 + libmatroska v0.9.0\n\nVideo\nID                               : 1\nFormat                           : AVC\nFormat/Info                      : Advanced Video Codec\nCodec ID                         : V_MPEG4/ISO/AVC\nDuration                         : 2h 9mn\nBit rate                         : 5 078 Kbps\nWidth                            : 1 280 pixels\nHeight                           : 720 pixels\nDisplay aspect ratio             : 16:9\nFrame rate                       : 23.976 fps\nBits/(Pixel*Frame)               : 0.230\nStream size                      : 4.60 GiB (91%)\n\nAudio\nID                               : 2\nFormat                           : AC-3\nFormat/Info                      : Audio Coding 3\nFormat_Settings_ModeExtension    : CM (complete main)\nCodec ID                         : A_AC3\nDuration                         : 2h 9mn\nBit rate mode                    : Constant\nBit rate                         : 384 Kbps\nChannel(s)                       : 6 channels\nChannel positions                : Front: L C R, Side: L R, LFE\nSampling rate                    : 48.0 KHz\nStream size                      : 356 MiB (7%)\nLanguage                         : English\n\nText\nID                               : 3\nFormat                           : VobSub\nCodec ID                         : S_VOBSUB\nCodec ID/Info                    : The same subtitle format used on DVDs\nLanguage                         : English\n\n","torrent":{"xt":"urn:btih:046e678200fe50d59990e5269e5ffe5e1b9072d2","amp;dn":"12+Monkeys+%281995%29+720p+-+JeLL","amp;tr":["udp%3A%2F%2Ftracker.openbittorrent.com%3A80","udp%3A%2F%2Fopen.demonii.com%3A1337","udp%3A%2F%2Ftracker.coppersurfer.tk%3A6969","udp%3A%2F%2Fexodus.desync.com%3A6969"],"infoHash":"046e678200fe50d59990e5269e5ffe5e1b9072d2","infoHashBuffer":{"type":"Buffer","data":[4,110,103,130,0,254,80,213,153,144,229,38,158,95,254,94,27,144,114,210]},"announce":[],"urlList":[]}}